<svg id="visual" viewBox="0 0 900 600" width="current" height="current" xmlns="http://www.w3.org/2000/svg" xmlns:xlink="http://www.w3.org/1999/xlink" version="1.1">
    <g transform="translate(462.74788760686414 336.57980843687636)">
        <path d="M117.3 -197C147 -163.4 162.7 -122.4 181.8 -82.4C201 -42.5 223.7 -3.5 221.2 33.6C218.7 70.8 191 106.1 159.2 132C127.5 157.9 91.8 174.4 55.8 180.9C19.8 187.3 -16.5 183.6 -59.9 181.2C-103.2 178.9 -153.6 177.8 -181.8 153.2C-209.9 128.5 -215.8 80.2 -227.3 30C-238.8 -20.3 -255.8 -72.5 -241.3 -112.7C-226.8 -152.9 -180.7 -181.2 -135.2 -207.6C-89.7 -234 -44.9 -258.5 -0.5 -257.6C43.8 -256.8 87.6 -230.6 117.3 -197" fill="#528DD9">
        </path>
    </g>
</svg>